<svg xmlns="http://www.w3.org/2000/svg" viewBox="0 0 24 24" width="30" height="30" fill="none" stroke="#ffffff" stroke-width="1.5" stroke-linecap="round" stroke-linejoin="round">
  <path d="M12 2C6.48 2 2 6.48 2 12s4.48 10 10 10 10-4.48 10-10S17.52 2 12 2z"></path>
  <path d="M15.36 14.96c.41-.54 1.13-1.5 1.38-1.85.75-1.05.82-1.3.82-1.3s.26-.29-.18-.44c-.45-.16-1.65.8-1.65.8s-1.14.73-2.22 1.33c0 0-.46.35-.68-.05-.34-.62-.94-.62-.94-.62s-.49-.05-.85.16c-1.26.73-.71 2.1.34 2.5 1.67.64 2.5-.33 2.5-.33s.23-.2.48-.2"></path>
  <path d="M7 11.5s.5-1 1.5-1c.94 0 3 2 3 2s.18-.24.18-.5-.35-.5-.35-.5 2.89-2 3.32-2.5c.43-.5.35-1 .35-1s.08-.5-.5-.5c-.58 0-3.5 2.5-3.5 2.5s-.08-.32 0-.5.49-1.5 0-1.5-1 .5-1 .5L9 9"></path>
</svg>