<svg xmlns="http://www.w3.org/2000/svg" viewBox="0 0 1920 1080" width="1920" height="1080">
  <!-- Фоновый градиент -->
  <defs>
    <linearGradient id="bg-gradient" x1="0%" y1="0%" x2="100%" y2="100%">
      <stop offset="0%" stop-color="#1a5f7a" />
      <stop offset="100%" stop-color="#233142" />
    </linearGradient>
  </defs>
  
  <!-- Фоновый прямоугольник -->
  <rect width="1920" height="1080" fill="url(#bg-gradient)" />
  
  <!-- Декоративные элементы -->
  <!-- Здания на фоне -->
  <g opacity="0.15" fill="#ffffff">
    <!-- Здание 1 -->
    <rect x="100" y="600" width="180" height="480" />
    <rect x="120" y="650" width="30" height="40" />
    <rect x="170" y="650" width="30" height="40" />
    <rect x="220" y="650" width="30" height="40" />
    <rect x="120" y="710" width="30" height="40" />
    <rect x="170" y="710" width="30" height="40" />
    <rect x="220" y="710" width="30" height="40" />
    <rect x="120" y="770" width="30" height="40" />
    <rect x="170" y="770" width="30" height="40" />
    <rect x="220" y="770" width="30" height="40" />
    
    <!-- Здание 2 - отель -->
    <rect x="400" y="500" width="300" height="580" />
    <rect x="450" y="400" width="200" height="100" />
    <rect x="425" y="550" width="50" height="80" />
    <rect x="525" y="550" width="50" height="80" />
    <rect x="625" y="550" width="50" height="80" />
    <rect x="425" y="650" width="50" height="80" />
    <rect x="525" y="650" width="50" height="80" />
    <rect x="625" y="650" width="50" height="80" />
    <rect x="425" y="750" width="50" height="80" />
    <rect x="525" y="750" width="50" height="80" />
    <rect x="625" y="750" width="50" height="80" />
    <rect x="525" y="850" width="50" height="130" />
    
    <!-- Здание 3 -->
    <rect x="800" y="580" width="150" height="500" />
    <rect x="815" y="620" width="30" height="40" />
    <rect x="865" y="620" width="30" height="40" />
    <rect x="915" y="620" width="30" height="40" />
    <rect x="815" y="680" width="30" height="40" />
    <rect x="865" y="680" width="30" height="40" />
    <rect x="915" y="680" width="30" height="40" />
    
    <!-- Здание 4 -->
    <rect x="1050" y="650" width="200" height="430" />
    <rect x="1070" y="680" width="40" height="60" />
    <rect x="1130" y="680" width="40" height="60" />
    <rect x="1190" y="680" width="40" height="60" />
    <rect x="1070" y="760" width="40" height="60" />
    <rect x="1130" y="760" width="40" height="60" />
    <rect x="1190" y="760" width="40" height="60" />
    
    <!-- Здание 5 -->
    <rect x="1350" y="550" width="250" height="530" />
    <polygon points="1350,550 1475,450 1600,550" />
    <rect x="1370" y="600" width="40" height="60" />
    <rect x="1430" y="600" width="40" height="60" />
    <rect x="1490" y="600" width="40" height="60" />
    <rect x="1550" y="600" width="40" height="60" />
    <rect x="1370" y="680" width="40" height="60" />
    <rect x="1430" y="680" width="40" height="60" />
    <rect x="1490" y="680" width="40" height="60" />
    <rect x="1550" y="680" width="40" height="60" />
    
    <!-- Здание 6 -->
    <rect x="1700" y="620" width="180" height="460" />
    <rect x="1720" y="670" width="30" height="40" />
    <rect x="1770" y="670" width="30" height="40" />
    <rect x="1830" y="670" width="30" height="40" />
    <rect x="1720" y="730" width="30" height="40" />
    <rect x="1770" y="730" width="30" height="40" />
    <rect x="1830" y="730" width="30" height="40" />
  </g>
  
  <!-- Декоративные звезды/блики -->
  <g fill="#ffffff">
    <circle cx="200" cy="200" r="1.5" opacity="0.7" />
    <circle cx="500" cy="150" r="2" opacity="0.8" />
    <circle cx="800" cy="250" r="1.2" opacity="0.6" />
    <circle cx="1100" cy="180" r="1.8" opacity="0.7" />
    <circle cx="1400" cy="220" r="2.2" opacity="0.8" />
    <circle cx="1700" cy="270" r="1.5" opacity="0.6" />
    <circle cx="300" cy="350" r="1.3" opacity="0.5" />
    <circle cx="600" cy="320" r="1.7" opacity="0.7" />
    <circle cx="900" cy="380" r="2.1" opacity="0.8" />
    <circle cx="1200" cy="310" r="1.4" opacity="0.6" />
    <circle cx="1500" cy="370" r="1.9" opacity="0.7" />
    <circle cx="1800" cy="330" r="1.6" opacity="0.5" />
  </g>
</svg>